{"asset":{"generator":"Khronos glTF Blender I/O v5.2.39","version":"2.0"},"scene":0,"scenes":[{"name":"Scene","nodes":[0]}],"nodes":[{"mesh":0,"name":"CalmSlush"}],"materials":[{"doubleSided":true,"name":"CalmSlushVertexColor","pbrMetallicRoughness":{"metallicFactor":0,"roughnessFactor":0.7799999713897705}}],"meshes":[{"name":"CalmSlushMesh","primitives":[{"attributes":{"POSITION":0,"NORMAL":1,"COLOR_0":2},"indices":3,"material":0}]}],"accessors":[{"bufferView":0,"componentType":5126,"count":488,"max":[0.41999998688697815,0.9057202339172363,0.3518909215927124],"min":[-0.41999998688697815,-0.5600000023841858,-0.3518909215927124],"type":"VEC3"},{"bufferView":1,"componentType":5126,"count":488,"type":"VEC3"},{"bufferView":2,"componentType":5126,"count":488,"type":"VEC3"},{"bufferView":3,"componentType":5123,"count":768,"type":"SCALAR"}],"bufferViews":[{"buffer":0,"byteLength":5856,"byteOffset":0,"target":34962},{"buffer":0,"byteLength":5856,"byteOffset":5856,"target":34962},{"buffer":0,"byteLength":5856,"byteOffset":11712,"target":34962},{"buffer":0,"byteLength":1536,"byteOffset":17568,"target":34963}],"buffers":[{"byteLength":19104,"uri":"data:application/octet-stream;base64,"}]}