{"asset":{"generator":"Khronos glTF Blender I/O v5.2.39","version":"2.0"},"scene":0,"scenes":[{"name":"Scene","nodes":[0]}],"nodes":[{"mesh":0,"name":"StimulantPotion"}],"materials":[{"doubleSided":true,"name":"StimulantVertexColor","pbrMetallicRoughness":{"metallicFactor":0,"roughnessFactor":0.5}}],"meshes":[{"name":"StimulantPotionMesh","primitives":[{"attributes":{"POSITION":0,"NORMAL":1,"COLOR_0":2},"indices":3,"material":0}]}],"accessors":[{"bufferView":0,"componentType":5126,"count":552,"max":[0.4300000071525574,0.6800000071525574,0.2750000059604645],"min":[-0.4300000071525574,-0.6800000071525574,-0.2750000059604645],"type":"VEC3"},{"bufferView":1,"componentType":5126,"count":552,"type":"VEC3"},{"bufferView":2,"componentType":5126,"count":552,"type":"VEC3"},{"bufferView":3,"componentType":5123,"count":960,"type":"SCALAR"}],"bufferViews":[{"buffer":0,"byteLength":6624,"byteOffset":0,"target":34962},{"buffer":0,"byteLength":6624,"byteOffset":6624,"target":34962},{"buffer":0,"byteLength":6624,"byteOffset":13248,"target":34962},{"buffer":0,"byteLength":1920,"byteOffset":19872,"target":34963}],"buffers":[{"byteLength":21792,"uri":"data:application/octet-stream;base64,"}]}