<svg xmlns="http://www.w3.org/2000/svg" width="96" height="96" viewBox="0 0 96 96">
  <!-- A single white backing group creates the same keyline as the supply icon. -->
  <g fill="#f4faff" stroke="#f4faff" stroke-width="7" stroke-linejoin="round">
    <rect x="43" y="12" width="10" height="25" rx="4"/>
    <rect x="43" y="59" width="10" height="25" rx="4"/>
    <rect x="59" y="43" width="25" height="10" rx="4"/>
    <rect x="12" y="43" width="25" height="10" rx="4"/>
    <rect x="43" y="12" width="10" height="25" rx="4" transform="rotate(45 48 48)"/>
    <rect x="43" y="59" width="10" height="25" rx="4" transform="rotate(45 48 48)"/>
    <rect x="59" y="43" width="25" height="10" rx="4" transform="rotate(45 48 48)"/>
    <rect x="12" y="43" width="25" height="10" rx="4" transform="rotate(45 48 48)"/>
    <circle cx="48" cy="48" r="26"/>
  </g>
  <g fill="#14233d">
    <rect x="43" y="12" width="10" height="25" rx="4"/>
    <rect x="43" y="59" width="10" height="25" rx="4"/>
    <rect x="59" y="43" width="25" height="10" rx="4"/>
    <rect x="12" y="43" width="25" height="10" rx="4"/>
    <rect x="43" y="12" width="10" height="25" rx="4" transform="rotate(45 48 48)"/>
    <rect x="43" y="59" width="10" height="25" rx="4" transform="rotate(45 48 48)"/>
    <rect x="59" y="43" width="25" height="10" rx="4" transform="rotate(45 48 48)"/>
    <rect x="12" y="43" width="25" height="10" rx="4" transform="rotate(45 48 48)"/>
    <circle cx="48" cy="48" r="26"/>
  </g>
  <circle cx="48" cy="48" r="14" fill="#f4faff"/>
  <circle cx="48" cy="48" r="8" fill="#cbff18"/>
  <circle cx="45.5" cy="45.5" r="2.5" fill="#f4faff" opacity="0.9"/>
</svg>
