<svg xmlns="http://www.w3.org/2000/svg" width="128" height="128" viewBox="0 0 128 128">
  <path d="M16 57C25 28 61 15 92 29 113 38 120 57 109 72 98 87 70 91 49 79 37 72 38 62 48 56 60 49 78 53 83 62 86 68 80 72 72 71" fill="none" stroke="#07182D" stroke-width="18" stroke-linecap="round"/>
  <path d="M16 57C25 28 61 15 92 29 113 38 120 57 109 72 98 87 70 91 49 79 37 72 38 62 48 56 60 49 78 53 83 62 86 68 80 72 72 71" fill="none" stroke="#20C8F1" stroke-width="11" stroke-linecap="round"/>
  <path d="M30 42C45 27 72 23 93 34" fill="none" stroke="#F5FAFC" stroke-width="6" stroke-linecap="round"/>
  <path d="M32 92C55 111 92 108 106 88" fill="none" stroke="#287BD3" stroke-width="10" stroke-linecap="round"/>
</svg>
